<svg width="80" height="80" viewBox="0 0 80 80"  xmlns="http://www.w3.org/2000/svg">
<path d="M22.8166 80.0002C22.1978 79.671 21.9708 79.1648 21.9916 78.4627C22.0478 76.5189 21.8603 74.5627 22.4937 72.6669C23.5291 69.5648 25.5041 67.2919 28.4999 65.9669C30.377 65.1377 32.2937 64.3919 34.2124 63.6627C34.7458 63.4585 34.9645 63.1877 34.8812 62.6439C34.8645 62.5419 34.8666 62.4356 34.8812 62.3335C34.9937 61.521 34.777 60.9564 33.9853 60.496C33.2374 60.0606 32.7374 59.1398 31.9666 58.8252C31.2312 58.5252 30.277 58.8127 29.4395 58.6981C22.8353 57.7919 19.1645 51.3398 21.7416 45.2044C22.2041 44.1044 22.6853 43.0106 23.1687 41.9189C23.9041 40.2585 24.5249 38.5814 24.9124 36.7794C27.3895 25.2585 41.6749 20.746 50.3958 28.6856C50.6458 28.9127 50.8978 29.1418 51.1145 29.4002C51.5416 29.9106 51.5395 30.4481 51.102 30.9523C50.6833 31.4356 50.0228 31.471 49.4916 31.0377C49.0291 30.6606 48.6124 30.2252 48.1458 29.8523C40.3624 23.6418 28.5812 28.2231 27.0166 38.0419C26.8624 39.0044 26.5374 39.9544 26.1708 40.8627C25.4437 42.6689 24.6145 44.4314 23.8624 46.2273C21.9041 50.9127 24.9166 55.9273 29.9666 56.4127C30.0937 56.4252 30.2249 56.4148 30.3666 56.4148C28.8228 51.9752 29.6041 47.4106 29.5645 42.9064C29.5437 40.4564 30.577 38.2585 32.0999 36.3314C32.8541 35.3773 33.9853 35.2127 34.9228 36.0002C37.2562 37.9627 39.9562 38.7064 42.9562 38.6689C44.6728 38.6481 46.3937 38.7419 48.1103 38.8023C49.5603 38.8523 50.4999 39.7814 50.5062 41.2294C50.5228 44.946 50.5708 48.6648 50.4687 52.3794C50.4312 53.7252 50.002 55.0606 49.7541 56.3856C52.6853 56.5669 55.8499 54.0169 56.5812 50.7627C56.927 49.2189 56.7874 47.7148 56.1624 46.2627C55.4333 44.571 54.6499 42.8981 53.9749 41.1856C53.5499 40.1064 53.2812 38.9669 52.9478 37.8523C52.6728 36.9335 52.4187 36.0085 52.127 35.096C51.8645 34.2794 52.0728 33.6314 52.7187 33.3919C53.3937 33.1419 53.9812 33.4439 54.3062 34.2439C54.5124 34.7481 54.7624 35.2564 54.8416 35.7856C55.3499 39.1252 56.9374 42.0689 58.2291 45.121C58.8041 46.4794 59.1291 47.8731 59.1041 49.3564C59.0124 54.8606 54.1291 59.2377 48.6291 58.7564C48.3312 58.7294 47.9624 58.9127 47.7083 59.1044C47.0041 59.6356 46.4062 60.3377 45.6458 60.7544C44.9187 61.1544 44.8166 61.646 44.7853 62.3731C44.7499 63.1523 45.002 63.5127 45.7353 63.7752C47.3499 64.3502 48.9291 65.0273 50.5228 65.6648C50.7645 65.7606 51.0062 65.8585 51.2395 65.9731C51.9603 66.3252 52.227 66.9294 51.9541 67.5544C51.6833 68.171 51.0353 68.4044 50.3083 68.1148C48.7145 67.4794 47.127 66.8294 45.5353 66.1877C45.227 66.0627 44.9124 65.946 44.5624 65.8106C43.6312 67.8419 42.1395 69.0835 39.8541 69.0835C37.5708 69.0856 36.0645 67.8669 35.1208 65.771C33.0041 66.6523 30.8499 67.3814 28.8583 68.421C25.9853 69.9189 24.5083 72.4273 24.3603 75.6752C24.3208 76.5564 24.3166 77.4439 24.3541 78.3252C24.3833 79.0314 24.1749 79.5877 23.5958 79.9981C23.3374 80.0002 23.077 80.0002 22.8166 80.0002ZM33.7541 38.0294C32.602 39.6127 31.9145 41.2856 31.8791 43.1439C31.8187 46.2356 31.7749 49.3294 31.877 52.4189C32.0395 57.3252 36.7958 60.9502 41.6083 59.9377C45.3978 59.1398 48.0791 56.0127 48.1499 52.1585C48.2145 48.6252 48.1687 45.0898 48.1687 41.5564C48.1687 41.4356 48.1291 41.3127 48.077 41.0023C46.3791 41.0023 44.6916 40.9835 43.0041 41.0064C39.6228 41.0481 36.4999 40.2877 33.7541 38.0294ZM37.2478 62.2814C37.2478 62.9314 37.1853 63.6877 37.2624 64.4294C37.3999 65.7752 38.4687 66.7273 39.7687 66.7564C41.127 66.7877 42.2458 65.8814 42.4124 64.5085C42.502 63.7731 42.4291 63.0169 42.4291 62.2814C40.7103 62.2814 39.0333 62.2814 37.2478 62.2814Z" fill="#34C2A9"/>
<path d="M56.1103 80.0002C55.5187 79.6023 55.2999 79.0523 55.3416 78.3418C55.3853 77.5918 55.3416 76.8398 55.352 76.0877C55.3749 74.271 54.8583 72.621 53.8603 71.1064C53.3958 70.4023 53.5062 69.7085 54.0874 69.3293C54.6791 68.9418 55.3333 69.1189 55.8103 69.8252C56.9666 71.5418 57.6187 73.4293 57.677 75.5023C57.7062 76.4856 57.6562 77.4731 57.7041 78.4564C57.7374 79.1585 57.4916 79.6564 56.8916 79.9981C56.6312 80.0002 56.3708 80.0002 56.1103 80.0002Z" fill="#34C2A9"/>
<path d="M11.3667 36.6688C11.3667 34.7563 11.3667 32.8438 11.3667 30.9292C9.62707 30.2458 9.33748 29.7188 9.25415 27.8354C9.1479 25.475 9.76874 24.2 12.8396 24.2521C15.1021 24.2896 16.05 25.5188 15.8917 27.3375C15.875 27.5188 15.8896 27.7021 15.8896 27.8833C15.8875 29.7104 15.4875 30.2938 13.8208 30.9083C13.8208 32.8333 13.8208 34.7563 13.8208 36.7771C13.9917 36.6625 14.1396 36.6083 14.1375 36.5583C14.1021 35.5542 14.8 34.8917 15.275 34.1354C16.3521 32.4188 17.4896 30.7417 18.5542 29.0167C20.475 25.9021 19.6542 21.8542 16.7021 19.7042C13.8271 17.6083 9.5479 18.0438 7.26249 20.6771C6.12499 21.9896 5.61874 23.5417 5.58957 25.2625C5.5854 25.4958 5.61249 25.7313 5.59374 25.9646C5.53749 26.6479 5.08124 27.1083 4.45832 27.1271C3.80207 27.1458 3.33332 26.6854 3.26457 25.9542C2.85207 21.5104 5.76249 17.4458 10.1396 16.35C14.0042 15.3813 17.8896 16.7604 20.1687 19.9063C22.4375 23.0417 22.5208 27.1708 20.3771 30.5167C19.4521 31.9604 18.5979 33.4583 17.575 34.8271C16.5521 36.1958 16.3021 37.7229 16.2562 39.3333C16.2062 41.0625 15.2396 42.3708 13.6458 42.7854C11.0854 43.4542 8.9729 41.825 8.90624 39.2104C8.86874 37.7167 8.66665 36.2625 7.69582 34.9875C6.8479 33.875 6.15415 32.6458 5.40415 31.4604C4.9229 30.7021 5.02499 30.0063 5.64582 29.6271C6.2604 29.2521 6.87082 29.4333 7.35624 30.1792C8.47707 31.8979 9.5979 33.6188 10.6792 35.3625C10.9271 35.7625 11.0104 36.2625 11.1687 36.7167C11.2271 36.7042 11.2958 36.6854 11.3667 36.6688ZM11.6562 26.6813C11.6562 27.3063 11.6562 27.8854 11.6562 28.4938C12.2917 28.4938 12.8771 28.4938 13.4979 28.4938C13.4979 27.8729 13.4979 27.2917 13.4979 26.6813C12.8625 26.6813 12.2771 26.6813 11.6562 26.6813ZM13.8562 39.1333C12.9583 39.1333 12.1229 39.1333 11.2896 39.1333C11.2875 40.1979 11.6521 40.5646 12.625 40.55C13.5312 40.5375 13.8833 40.1458 13.8562 39.1333Z" fill="#34C2A9"/>
<path d="M59.5313 33.5832C59.748 32.3124 59.975 30.8499 60.2563 29.3978C60.35 28.9124 60.2813 28.579 59.9042 28.2332C58.9084 27.3186 57.9542 26.3561 56.9834 25.4144C56.398 24.8457 56.1042 24.1936 56.4021 23.3769C56.6938 22.5769 57.3021 22.229 58.1209 22.1228C59.4875 21.9457 60.8542 21.7499 62.2105 21.5061C62.4834 21.4561 62.8146 21.2144 62.9459 20.9707C63.5813 19.779 64.1667 18.5624 64.75 17.3457C65.1125 16.5874 65.6271 16.0561 66.525 16.0499C67.4209 16.0436 67.95 16.5561 68.3167 17.3186C68.9 18.5353 69.4875 19.754 70.1292 20.9415C70.2709 21.2019 70.625 21.454 70.9188 21.5061C72.275 21.754 73.6417 21.9394 75.0084 22.1269C75.7959 22.2353 76.4063 22.579 76.6709 23.3457C76.9438 24.1332 76.725 24.8186 76.1188 25.3978C75.1229 26.3519 74.1188 27.2999 73.1709 28.2978C72.95 28.5311 72.8063 28.9749 72.848 29.2915C73.0313 30.6811 73.2875 32.0603 73.5313 33.4415C73.6667 34.2082 73.4438 34.8394 72.8334 35.3019C72.2167 35.7665 71.5417 35.7999 70.8521 35.4374C69.5875 34.7707 68.3292 34.0874 67.0438 33.4644C66.773 33.3332 66.3334 33.3269 66.0667 33.4561C64.7563 34.0894 63.4917 34.8186 62.1834 35.4519C60.8605 36.0894 59.5042 35.2103 59.5313 33.5832ZM59.4605 24.3061C60.2396 25.1457 60.9417 26.0207 61.7667 26.7603C62.623 27.5311 62.8625 28.3874 62.625 29.479C62.3896 30.5624 62.2355 31.6644 62.023 32.8936C62.7938 32.4957 63.4542 32.1582 64.1105 31.8144C66.7542 30.4269 66.3105 30.4124 69.0125 31.8249C69.6355 32.1519 70.2605 32.4749 71.048 32.8832C70.8334 31.5936 70.7229 30.5061 70.4605 29.4582C70.1688 28.2978 70.5313 27.4728 71.3938 26.704C72.2105 25.9769 72.925 25.1374 73.7313 24.2978C72.4938 24.1228 71.3146 23.929 70.1292 23.7936C69.1771 23.6874 68.5688 23.2082 68.1771 22.3478C67.6855 21.2707 67.1355 20.2186 66.5459 19.0269C65.9167 20.2936 65.35 21.4186 64.798 22.5519C64.4667 23.2353 63.9563 23.6374 63.1875 23.7415C61.9271 23.9186 60.6709 24.1228 59.4605 24.3061Z" fill="#34C2A9"/>
<path d="M50.25 10.5293C50.2479 16.2709 45.5688 20.9147 39.8021 20.8959C34.0896 20.8793 29.4292 16.2105 29.4375 10.5147C29.4458 4.78135 34.1396 0.125099 39.8938 0.139683C45.6042 0.158433 50.2521 4.81885 50.25 10.5293ZM47.8979 10.4064C47.7813 5.86677 44.1167 2.37302 39.5938 2.4876C35.2646 2.59802 31.7042 6.3001 31.7854 10.6001C31.8729 15.1543 35.5563 18.6605 40.1396 18.548C44.4563 18.4459 48.0083 14.7168 47.8979 10.4064Z" fill="#34C2A9"/>
<path d="M57.4583 17.5875C55.9083 16.8396 54.4625 16.1396 53.0146 15.4458C52.8042 15.3458 52.5791 15.2729 52.3687 15.175C51.65 14.8396 51.3666 14.2333 51.6271 13.6021C51.8812 12.9875 52.55 12.7083 53.2687 13.0375C54.8958 13.7833 56.4979 14.5833 58.1062 15.3667C58.3583 15.4896 58.5979 15.6396 58.8916 15.8021C58.9771 15.5646 58.9896 15.2979 59.1229 15.2042C59.4979 14.9396 59.9541 14.5312 60.3208 14.5833C60.6833 14.6333 61.2 15.1417 61.2562 15.5104C61.3937 16.3979 61.3854 17.3292 61.2666 18.2208C61.2187 18.5812 60.7833 18.9917 60.4208 19.1812C59.8771 19.4646 59.2416 19.5646 58.6479 19.7583C58.0083 19.9667 57.3979 20.0042 56.9812 19.3667C56.5604 18.7292 56.8104 18.1854 57.4583 17.5875Z" fill="#34C2A9"/>
<path d="M24.1313 13.9978C23.7979 13.3936 23.7021 12.8478 24.1646 12.354C24.6292 11.8561 25.1833 11.954 25.75 12.1624C26.2854 12.3603 26.8333 12.5228 27.3667 12.7228C28.1917 13.0311 28.4479 13.5082 28.2396 14.3603C28.0667 15.0645 27.8625 15.7582 27.6729 16.4582C27.4271 17.3624 26.9917 17.7749 26.3458 17.7145C25.6458 17.6478 25.3104 17.1686 25.2688 16.0478C24.3854 16.5186 23.5542 16.9582 22.7229 17.4061C22.45 17.5541 22.1938 17.7374 21.9125 17.8686C21.3021 18.154 20.6688 17.9686 20.35 17.4353C20.025 16.8916 20.1458 16.2499 20.7417 15.8791C21.6208 15.3332 22.5438 14.8561 23.45 14.352C23.65 14.2395 23.8583 14.1395 24.1313 13.9978Z" fill="#34C2A9"/>
<path d="M37.2479 62.2812C39.0354 62.2812 40.7104 62.2812 42.4292 62.2812C42.4292 63.0146 42.5021 63.7708 42.4125 64.5083C42.2458 65.8813 41.1271 66.7875 39.7687 66.7563C38.4687 66.7271 37.4 65.775 37.2625 64.4292C37.1854 63.6875 37.2479 62.9313 37.2479 62.2812Z" fill="white"/>
<path d="M11.6562 26.6812C12.2771 26.6812 12.8625 26.6812 13.4979 26.6812C13.4979 27.2916 13.4979 27.8728 13.4979 28.4937C12.8771 28.4937 12.2917 28.4937 11.6562 28.4937C11.6562 27.8853 11.6562 27.3041 11.6562 26.6812Z" fill="white"/>
<path d="M13.8562 39.1333C13.8833 40.1458 13.5312 40.5354 12.6271 40.55C11.6521 40.5646 11.2896 40.1979 11.2916 39.1333C12.1229 39.1333 12.9583 39.1333 13.8562 39.1333Z" fill="white"/>
<path d="M59.4604 24.3063C60.6709 24.1229 61.925 23.9188 63.1855 23.7458C63.9542 23.6417 64.4646 23.2375 64.7959 22.5563C65.3479 21.4229 65.9146 20.2979 66.5438 19.0312C67.1334 20.2229 67.6854 21.275 68.175 22.3521C68.5667 23.2125 69.175 23.6917 70.1271 23.7979C71.3125 23.9313 72.4917 24.125 73.7292 24.3021C72.9229 25.1417 72.2084 25.9813 71.3917 26.7083C70.5292 27.475 70.1667 28.3021 70.4584 29.4625C70.7209 30.5104 70.8313 31.5979 71.0459 32.8875C70.2584 32.4792 69.6354 32.1542 69.0104 31.8292C66.3104 30.4167 66.7542 30.4313 64.1084 31.8188C63.4521 32.1625 62.7917 32.5 62.0209 32.8979C62.2334 31.6688 62.3854 30.5667 62.6229 29.4833C62.8604 28.3917 62.6209 27.5354 61.7646 26.7646C60.9438 26.0208 60.2396 25.1458 59.4604 24.3063Z" fill="white"/>
<path d="M38.6437 11.9398C39.6103 10.9669 40.5374 10.0314 41.4666 9.0981C42.0708 8.49185 42.6624 7.87102 43.2958 7.29393C43.7937 6.84185 44.4791 6.88143 44.9124 7.31685C45.352 7.75643 45.402 8.44185 44.9249 8.92727C43.1062 10.7794 41.2687 12.6106 39.4145 14.4273C38.9166 14.9148 38.3208 14.896 37.8062 14.4231C37.252 13.9148 36.7187 13.3814 36.2062 12.8294C35.6916 12.2752 35.6999 11.6439 36.1791 11.1648C36.6395 10.7044 37.3041 10.7106 37.8583 11.1939C38.1103 11.4148 38.3416 11.6523 38.6437 11.9398Z" fill="#34C2A9"/>
</svg>
