<svg width="77" height="78" viewBox="0 0 77 78" fill="none" xmlns="http://www.w3.org/2000/svg">
<g clip-path="url(#clip0_561_1104)">
<path d="M69.3102 17.2432C66.0507 18.6156 62.8896 19.9453 59.7285 21.275C58.2668 21.8906 58.2668 21.8885 58.2668 23.4662C58.2668 28.2633 58.2668 33.0604 58.2668 37.8575C58.2668 39.1102 58.0528 39.3881 56.85 39.6938C48.6295 41.7824 40.2891 42.5733 31.8246 41.9833C26.9942 41.6456 22.2259 40.8995 17.541 39.6639C16.3788 39.3582 16.1734 39.1059 16.1734 37.8853C16.1712 32.8209 16.1563 27.7566 16.1926 22.6944C16.1969 22.0424 15.9765 21.7816 15.4072 21.5465C11.497 19.9239 7.60403 18.2586 3.69817 16.6275C3.08608 16.3731 2.59169 16.0567 2.57243 15.3406C2.55317 14.5795 3.06253 14.2503 3.70459 13.9788C14.6003 9.39337 25.4939 4.79721 36.3811 0.188228C36.9697 -0.0618885 37.4833 -0.0640263 38.0655 0.181815C48.9056 4.76087 59.7478 9.33779 70.5986 13.8891C71.551 14.2888 71.902 14.8681 71.8956 15.8964C71.857 21.9462 71.8827 27.996 71.8656 34.0459C71.8634 34.5269 71.9854 34.7706 72.4392 35.01C74.2904 35.9869 74.9475 38.1739 73.9844 40.0829C73.7789 40.489 73.7896 40.6857 74.1556 40.9914C75.3627 42.0004 75.9405 43.3322 76.0647 44.8949C76.3472 48.4265 76.6575 51.9559 76.9721 55.4853C77.1133 57.0865 76.7345 57.5269 75.1379 57.5269C72.0368 57.5269 68.9357 57.529 65.8345 57.5269C64.5675 57.5248 64.0945 57.0245 64.1994 55.7526C64.5097 52.0094 64.8158 48.2662 65.1582 44.5251C65.2845 43.1484 65.888 41.9662 66.9474 41.062C67.3241 40.7413 67.4439 40.5361 67.1828 40.0358C66.2005 38.1696 66.9089 35.9955 68.788 34.9822C69.1154 34.8069 69.3209 34.6701 69.3209 34.2361C69.3059 28.6181 69.3102 22.9937 69.3102 17.2432Z" fill="#34C2A9"/>
<path d="M17.192 63.9272C14.3712 63.9272 11.6446 63.9571 8.92012 63.9208C3.7922 63.8523 -0.150038 59.7158 0.00619611 54.613C0.145309 50.019 3.98054 46.1304 8.59695 46.0428C12.8452 45.9615 17.0978 46.0171 21.3482 46.0193C21.7549 46.0193 22.1166 45.9444 22.4954 45.767C25.4489 44.3839 28.4216 44.3775 31.3815 45.7499C31.7838 45.9359 32.1691 46.0193 32.6057 46.0193C38.915 46.0128 45.2243 45.9893 51.5314 46.0235C56.5716 46.0513 60.501 50.0468 60.4903 55.0512C60.4796 59.874 56.5566 63.8694 51.7005 63.9165C47.022 63.9614 42.3436 63.9272 37.6672 63.9293C37.3762 63.9293 37.0851 63.9293 36.7127 63.9293C37.618 66.4048 38.4998 68.8205 39.3837 71.234C39.6747 72.0314 39.968 72.8309 40.2633 73.6283C40.4538 74.1456 40.4153 74.6309 40.03 75.0413C39.6212 75.4774 39.1226 75.5373 38.5597 75.3577C37.6715 75.0734 36.7619 74.8511 35.8887 74.5304C35.3301 74.3252 35.0455 74.4663 34.7609 74.9622C34.3114 75.7446 33.7742 76.4779 33.2841 77.2411C32.9567 77.7541 32.5222 78.0791 31.893 77.9871C31.3023 77.9016 30.9941 77.4933 30.7951 76.9503C29.588 73.6304 28.3681 70.3148 27.1525 66.997C27.1096 66.8794 27.0647 66.764 26.9491 66.4561C26.5874 67.4288 26.2878 68.2305 25.9925 69.0321C25.0401 71.6252 24.0813 74.2161 23.1481 76.8156C22.9363 77.4078 22.6538 77.8973 21.9839 77.985C21.2691 78.0812 20.8603 77.6387 20.5136 77.0871C20.032 76.3197 19.4991 75.5864 19.0432 74.8062C18.8057 74.3979 18.5596 74.3551 18.1444 74.4941C17.2348 74.7997 16.3059 75.0413 15.3942 75.3406C14.8378 75.5223 14.337 75.4988 13.9089 75.0798C13.4488 74.6287 13.4595 74.0943 13.6692 73.5278C14.795 70.4601 15.9164 67.3925 17.04 64.3248C17.0764 64.2286 17.1128 64.1324 17.192 63.9272Z" fill="#34C2A9"/>
<path d="M63.9061 14.0261C63.6193 14.0261 63.3347 14.0261 63.0479 14.0261C54.654 14.0261 46.258 14.0261 37.8642 14.0261C37.5966 14.0261 37.3227 13.9983 37.0637 14.0432C36.3725 14.165 35.9551 14.5883 35.9487 15.2938C35.9423 16.0014 36.3575 16.4289 37.0445 16.5614C37.3034 16.6128 37.5774 16.5828 37.8449 16.5828C46.2388 16.5828 54.6348 16.5828 63.0286 16.5828C63.3197 16.5828 63.6107 16.5828 63.9039 16.5828C63.9189 16.6234 63.9339 16.6641 63.9489 16.7047C63.2876 16.989 62.6284 17.2755 61.9649 17.5555C53.9435 20.9417 45.922 24.3236 37.9027 27.7141C37.5003 27.8851 37.1515 27.977 36.6956 27.7846C26.9877 23.6695 17.2733 19.5757 7.55898 15.4776C7.48836 15.4477 7.42415 15.4049 7.34924 15.3643C7.42843 15.0629 7.71308 15.0736 7.90997 14.9902C17.4745 10.9477 27.0412 6.91379 36.6079 2.87559C36.9846 2.71739 37.3141 2.64257 37.74 2.82214C46.3929 6.49052 55.0564 10.1375 63.7156 13.7909C63.7862 13.8209 63.8504 13.8636 63.9189 13.9C63.9146 13.9406 63.9104 13.9833 63.9061 14.0261Z" fill="#F8F8F8"/>
<path d="M18.7393 22.9746C22.018 24.3535 25.2027 25.6938 28.3894 27.0363C31.0133 28.1415 33.6479 29.2297 36.2546 30.3712C36.9545 30.6791 37.5473 30.647 38.2365 30.3563C43.8202 27.9812 49.4168 25.6318 55.0092 23.276C55.2018 23.1948 55.3966 23.1157 55.5806 23.0387C55.7711 23.2162 55.6962 23.4107 55.6962 23.5796C55.7005 27.9492 55.6876 32.3187 55.7154 36.6883C55.7197 37.2291 55.5335 37.4065 55.0434 37.5198C46.7823 39.4524 38.4269 40.0616 29.9774 39.2664C26.4119 38.9308 22.8891 38.3279 19.4027 37.5092C19.0539 37.4279 18.72 37.4087 18.7243 36.8507C18.7521 32.2717 18.7393 27.6905 18.7393 22.9746Z" fill="#F8F8F8"/>
<path d="M70.5493 54.9725C69.507 54.9725 68.4647 54.9597 67.4224 54.979C67.0393 54.9854 66.8489 54.9383 66.8917 54.4702C67.1849 51.1802 67.4182 47.8859 67.7435 44.6002C67.8826 43.2021 69.1945 42.1696 70.5963 42.1803C72.0474 42.1909 73.3187 43.2427 73.4578 44.6921C73.7681 47.9265 74.0078 51.1674 74.2946 54.4039C74.3353 54.855 74.2283 55.0003 73.7553 54.9854C72.6873 54.9469 71.6172 54.9725 70.5493 54.9725Z" fill="#F8F8F8"/>
<path d="M69.3145 38.3386C69.3123 37.6481 69.8773 37.0731 70.5708 37.0603C71.292 37.0474 71.8955 37.6524 71.8741 38.3728C71.8527 39.0612 71.2663 39.6213 70.5772 39.6127C69.8859 39.6042 69.3166 39.0291 69.3145 38.3386Z" fill="#FBFBFB"/>
<path d="M26.917 62.6466C22.6815 62.6317 19.2379 59.1706 19.2508 54.9379C19.2636 50.7137 22.735 47.2826 26.9812 47.2954C31.2145 47.3083 34.6623 50.7757 34.6495 55.0042C34.6388 59.2241 31.1588 62.6616 26.917 62.6466Z" fill="#F8F8F8"/>
<path d="M18.9171 48.574C16.7641 51.5433 16.1391 54.6538 17.1664 58.0528C17.3997 58.8203 17.7486 59.5343 18.1488 60.229C18.564 60.9516 18.3136 61.3685 17.4746 61.3706C14.6945 61.3727 11.9122 61.3834 9.13213 61.3685C5.4146 61.3492 2.5553 58.5466 2.56386 54.9509C2.57242 51.3916 5.42317 48.5975 9.09574 48.5804C12.3274 48.5612 15.5591 48.574 18.9171 48.574Z" fill="#F8F8F8"/>
<path d="M35.0112 48.5742C38.3328 48.5742 41.5624 48.5742 44.7898 48.5742C44.8861 48.5742 44.9846 48.587 45.205 48.602C43.4436 50.4405 42.5362 52.5462 42.5426 54.9832C42.549 57.3988 43.4308 59.4917 45.1194 61.2382C44.9375 61.4734 44.7063 61.3643 44.518 61.3643C41.7935 61.3729 39.0669 61.3729 36.3403 61.3686C35.6233 61.3665 35.3494 60.9218 35.7025 60.2976C37.9733 56.2936 37.6651 52.4328 35.0112 48.5742Z" fill="#F8F8F8"/>
<path d="M51.9636 48.8564C49.3376 50.0535 48.0107 52.5034 48.6142 55.0494C49.0487 56.8836 50.6988 58.3287 52.5693 58.5126C54.412 58.6943 55.9765 57.8584 56.717 56.2829C56.9803 55.7228 57.1622 55.1264 57.0894 54.5064C57.0102 53.8202 56.6122 53.3799 55.8866 53.3456C55.1675 53.3114 54.7202 53.6877 54.564 54.3696C54.2537 55.7207 53.755 56.1482 52.6763 55.9387C51.6148 55.7335 50.885 54.6454 51.0605 53.5338C51.373 51.5542 53.3762 50.5046 55.4329 51.2421C57.342 51.9262 58.2901 53.8587 57.8428 56.1568C57.1814 59.5515 54.1145 61.7919 50.7651 61.3301C47.2959 60.8513 44.794 57.805 45.115 54.4444C45.4446 50.977 48.3146 48.4737 51.816 48.5956C51.9337 48.6447 52.0086 48.7153 51.9636 48.8564Z" fill="#F8F8F8"/>
<path d="M21.4188 73.7502C21.0978 73.2649 20.7704 72.7967 20.4686 72.3115C20.0405 71.621 19.4456 71.4307 18.6858 71.6637C18.155 71.8262 17.6243 71.9844 17.1085 72.1383C16.9009 71.9224 17.0678 71.7642 17.1256 71.606C18.1208 68.8654 19.1245 66.1291 20.1069 63.3821C20.2717 62.9225 20.3851 62.7942 20.8324 63.1555C21.8362 63.9657 23.0047 64.4873 24.2439 64.8336C24.5671 64.9234 24.7618 64.9448 24.5949 65.3873C23.5719 68.1172 22.5852 70.8599 21.5815 73.5984C21.5686 73.6433 21.5109 73.6711 21.4188 73.7502Z" fill="#F8F8F8"/>
<path d="M36.9161 72.2901C34.778 71.0245 33.3077 71.544 32.5415 73.887C32.1434 73.3483 32.0557 72.8737 31.893 72.4354C31.0562 70.1737 30.2472 67.9013 29.3804 65.6524C29.16 65.0816 29.2777 64.8999 29.8491 64.7609C31.0776 64.4595 32.1755 63.8609 33.1772 63.0935C33.4318 62.899 33.5667 62.7814 33.7208 63.2132C34.7759 66.1547 35.861 69.0856 36.9375 72.0207C36.9289 72.1084 36.9225 72.1981 36.9161 72.2901Z" fill="#F8F8F8"/>
<path d="M51.9639 48.8564C51.9147 48.7709 51.8655 48.6832 51.8141 48.5977C51.9789 48.5806 52.1865 48.4673 52.2699 48.6896C52.2956 48.7495 52.1094 48.8671 51.9639 48.8564Z" fill="#F8F8F8"/>
</g>
<defs>
<clipPath id="clip0_561_1104">
<rect width="77" height="78" fill="white"/>
</clipPath>
</defs>
</svg>
