<svg width="140" height="35" viewBox="0 0 140 35" fill="none" xmlns="http://www.w3.org/2000/svg">
<g clipPath="url(#clip0_235_192)">
<path d="M23.0973 32.607C16.6915 29.329 10.3014 26.0228 3.89553 22.7489C1.61729 21.5865 0.41324 19.7162 0.263718 17.1622C0.122065 14.7611 0.126 12.3518 0.00795586 9.94665C-0.0589357 8.57915 0.432914 8.48262 1.49924 9.0256C8.17659 12.4323 14.8815 15.7827 21.547 19.2175C23.7112 20.3316 24.9506 22.1697 24.9939 24.7438C25.1631 34.3043 26.1861 34.1876 23.0973 32.607Z" fill="white"/>
<path d="M24.3329 18.1192C24.1126 18.1192 23.8568 18.0347 23.5539 17.8658C22.763 17.4233 21.9681 16.989 21.1733 16.5546C19.6938 15.7461 18.1593 14.9096 16.6876 14.0247C14.8422 12.9186 13.8231 11.0604 13.65 8.50642C13.5555 7.11479 13.5044 5.695 13.4572 4.32348C13.4218 3.37829 13.3864 2.39691 13.3391 1.43564C13.3155 0.99723 13.3352 0.381854 13.7405 0.116398C14.1497 -0.149058 14.7006 0.0962876 15.0783 0.305435C15.9046 0.755906 16.7309 1.19431 17.5612 1.63674C18.9344 2.36473 20.3509 3.11686 21.7242 3.90921C23.7781 5.09169 24.9035 6.99413 25.0609 9.56825C25.1278 10.6462 25.1475 15.5973 25.1199 16.9648C25.1081 17.5118 24.9704 17.8577 24.691 18.0226C24.5887 18.087 24.4667 18.1192 24.3329 18.1192ZM14.1576 0.591002C14.0985 0.591002 14.0671 0.603068 14.0513 0.615134C14.012 0.639266 13.8861 0.776017 13.9175 1.40346C13.9648 2.36875 14.0002 3.35014 14.0356 4.29935C14.0828 5.66685 14.134 7.07859 14.2284 8.46218C14.3858 10.8111 15.3105 12.5124 16.9828 13.5099C18.4465 14.3867 19.9732 15.2233 21.4487 16.0277C22.2436 16.4621 23.0423 16.8965 23.8332 17.3429C24.2503 17.5762 24.3841 17.5199 24.4077 17.5078C24.4707 17.4716 24.5415 17.3027 24.5454 16.9487C24.573 15.4767 24.5494 10.5818 24.4864 9.60043C24.3408 7.23947 23.3138 5.49792 21.4448 4.42001C20.0834 3.6357 18.6668 2.88358 17.2975 2.15961C16.4673 1.71718 15.6331 1.27475 14.8068 0.824281C14.4605 0.635244 14.2638 0.591002 14.1576 0.591002Z" fill="white"/>
<path d="M34.8623 34.525H29.0073V8.25293H34.8623V34.525Z" fill="white"/>
<path d="M58.1957 27.4869L60.6864 32.5829C60.6864 32.5829 57.8219 35.0042 52.2424 35.0042C44.9827 35.0042 38.3171 28.955 38.3171 21.4377C38.3171 13.8923 44.9512 7.77881 52.2424 7.77881C57.818 7.77881 60.6864 10.2001 60.6864 10.2001L58.1957 15.296C58.1957 15.296 56.1378 13.6711 53.1474 13.6711C47.2609 13.6711 44.6758 17.8742 44.6758 21.3774C44.6758 24.9128 47.2609 29.1159 53.1474 29.1159C56.1378 29.1118 58.1957 27.4869 58.1957 27.4869Z" fill="white"/>
<path d="M88.226 34.525H81.9342L80.0337 29.2722H70.2518L68.3513 34.525H62.0596L72.4317 8.25293H77.8538L88.226 34.525ZM75.1742 16.3735H75.1113L72.2468 24.0154H78.0427L75.1742 16.3735Z" fill="white"/>
<path d="M100.282 8.25293C105.047 8.25293 108.663 10.8954 108.663 16.0557C108.663 20.0054 106.546 22.6479 103.399 23.6655L112.244 34.525H104.799L96.9495 24.1441V34.525H91.0906V8.25293H100.282ZM97.6341 19.9089C99.8455 19.9089 102.494 19.748 102.494 16.47C102.494 13.192 99.8455 13.0311 97.6341 13.0311H96.9495V19.9089H97.6341V19.9089Z" fill="white"/>
<path d="M127.07 7.77441C134.204 7.77441 140 13.6989 140 21.373C140 29.0471 134.456 34.9998 127.07 34.9998C119.468 34.9998 114.113 29.0471 114.113 21.373C114.113 13.6989 119.999 7.77441 127.07 7.77441ZM127.07 29.208C131.745 29.208 133.673 25.2905 133.673 21.373C133.673 17.4555 131.615 13.538 127.07 13.538C122.553 13.538 120.436 17.4555 120.436 21.373C120.436 25.2905 122.274 29.208 127.07 29.208Z" fill="white"/>
</g>
<defs>
<clipPath id="clip0_235_192">
<rect width="140" height="35" fill="white"/>
</clipPath>
</defs>
</svg>