<svg width="81" height="82" viewBox="0 0 81 82" fill="none" xmlns="http://www.w3.org/2000/svg">
<path d="M72.4042 30.2029C71.495 30.2029 70.6865 30.2029 69.7503 30.2029C69.7503 30.5119 69.7503 30.8053 69.7503 31.0965C69.7503 36.4334 69.7503 41.7703 69.7503 47.1072C69.7503 48.5361 69.3293 48.9616 67.9139 48.9616C47.686 48.9616 27.4558 48.9616 7.22788 48.9616C5.79903 48.9616 5.37799 48.5428 5.37799 47.1207C5.37575 34.9396 5.37799 22.7562 5.37799 10.5752C5.37799 9.14182 5.79007 8.72973 7.21669 8.72973C16.9678 8.72973 26.719 8.72973 36.4701 8.72973C36.8016 8.72973 37.1308 8.72973 37.5138 8.72973C37.5138 7.82494 37.5138 6.97838 37.5138 6.04671C37.189 6.04671 36.8889 6.04671 36.5911 6.04671C25.9463 6.04671 15.3016 6.04671 4.6546 6.04671C3.0421 6.04671 2.69497 6.39609 2.69497 8.01307C2.69497 12.1473 2.7084 16.2838 2.67705 20.4181C2.67257 20.884 2.54715 21.511 2.23585 21.7641C1.90215 22.0351 1.18997 22.1471 0.809239 21.9701C0.435228 21.7977 0.0724154 21.1818 0.0500196 20.7451C-0.0350846 19.0161 0.0141863 17.2827 0.0141863 15.5493C0.0141863 12.9222 0.00970715 10.2974 0.0164259 7.67041C0.0231446 5.05458 1.70507 3.36593 4.31419 3.36593C15.156 3.36145 25.9956 3.35921 36.8374 3.37713C37.4735 3.37713 37.8654 3.27859 38.217 2.64479C38.9852 1.25848 40.2752 0.678431 41.8518 0.680671C49.3119 0.687389 56.7719 0.68291 64.232 0.68291C68.1714 0.68291 72.1108 0.678431 76.0503 0.68515C78.8408 0.689629 80.4846 2.329 80.4869 5.10609C80.4891 11.9525 80.4891 18.7967 80.4869 25.6431C80.4869 28.5859 78.8856 30.176 75.9181 30.1894C75.6964 30.1894 75.4725 30.1894 75.1186 30.1894C75.1186 30.5388 75.1186 30.8591 75.1186 31.1816C75.1186 37.4121 75.1208 43.6426 75.1186 49.8731C75.1164 52.6995 73.477 54.3299 70.6305 54.3299C48.5863 54.3321 26.5398 54.3321 4.49559 54.3299C1.6558 54.3299 0.0164259 52.6928 0.0164259 49.8664C0.0141863 44.3055 0.0141863 38.7469 0.0164259 33.186C0.0164259 32.1177 0.42627 31.5802 1.25492 31.5287C2.12611 31.4727 2.68601 32.0147 2.69273 32.9844C2.70841 35.3315 2.69945 37.6786 2.69945 40.0257C2.69945 43.2955 2.69721 46.563 2.69945 49.8328C2.69945 51.2258 3.11153 51.6491 4.47767 51.6491C26.551 51.6514 48.6243 51.6514 70.6954 51.6491C71.9496 51.6491 72.4333 51.2124 72.4333 50.0456C72.4401 43.6202 72.4356 37.1926 72.4356 30.7672C72.4311 30.5993 72.4154 30.438 72.4042 30.2029ZM67.0248 30.2297C66.8613 30.2118 66.7538 30.1917 66.6485 30.1917C62.6531 30.1894 58.6577 30.1782 54.6623 30.2073C54.3196 30.2096 53.9165 30.4111 53.6432 30.6396C50.9132 32.9486 48.2011 35.2778 45.4912 37.6114C44.9581 38.0705 44.4296 38.449 43.6883 38.0929C42.994 37.757 42.9067 37.1523 42.9179 36.4715C42.9358 35.215 42.9224 33.9564 42.9224 32.7C42.9224 31.8736 42.9224 31.0472 42.9224 30.1872C42.6043 30.1872 42.4095 30.1693 42.2169 30.1894C39.6481 30.4604 37.4443 28.5366 37.5317 25.4751C37.6549 21.0922 37.563 16.7027 37.563 12.3175C37.563 12.0242 37.563 11.733 37.563 11.4575C27.6618 11.4575 17.8928 11.4575 8.11252 11.4575C8.11252 23.081 8.11252 34.6552 8.11252 46.2181C9.01955 46.2181 9.86835 46.2181 10.7216 46.2181C10.8403 43.7501 11.7608 41.7233 13.5995 40.1421C15.4628 38.5408 17.6912 38.1063 20.1234 38.2474C20.1234 37.2463 20.166 36.355 20.1032 35.4704C20.0764 35.0986 19.9106 34.6663 19.662 34.3886C18.5714 33.1703 17.8054 31.8042 17.5837 30.176C17.4673 29.3227 17.4449 28.456 17.3799 27.5848C16.2668 27.1122 16.1056 26.8771 16.1056 25.6565C16.1056 24.4001 16.0832 23.1415 16.1168 21.885C16.222 18.0912 19.0126 14.8259 22.7594 14.2615C24.1838 14.0465 25.6552 14.0846 27.1019 14.1137C30.8779 14.1921 34.1656 17.0207 34.7076 20.7675C34.9338 22.3307 34.8039 23.9432 34.8845 25.5288C34.9382 26.5658 34.6829 27.3541 33.5564 27.5602C33.5475 27.7438 33.534 27.8535 33.5385 27.9655C33.6572 30.5164 32.9495 32.7605 31.0996 34.588C30.9742 34.7111 30.8689 34.9194 30.8644 35.0896C30.8421 36.1154 30.8532 37.1411 30.8532 38.2542C33.3257 38.0929 35.5407 38.5677 37.4063 40.1712C39.2606 41.7681 40.143 43.8397 40.2752 46.2405C49.229 46.2405 58.1045 46.2405 67.0203 46.2405C67.0247 40.9036 67.0248 35.607 67.0248 30.2297ZM45.6054 33.9273C45.9682 33.6406 46.2056 33.4615 46.4318 33.2688C48.4049 31.5802 50.3914 29.9028 52.3398 28.185C52.9042 27.69 53.4865 27.4907 54.2323 27.493C61.4683 27.5131 68.7044 27.5042 75.9405 27.5042C77.3873 27.5042 77.7949 27.1033 77.7971 25.6811C77.7994 18.8638 77.7994 12.0466 77.7971 5.22926C77.7971 3.74442 77.4097 3.35921 75.9047 3.35921C69.0874 3.35697 62.2701 3.35921 55.4528 3.35921C50.9266 3.35921 46.4004 3.35697 41.8742 3.36145C40.7724 3.36369 40.255 3.80937 40.2528 4.82166C40.2416 11.8898 40.2416 18.9579 40.2528 26.0283C40.255 27.0204 40.7612 27.4862 41.7779 27.5042C42.5036 27.5176 43.2314 27.5019 43.957 27.5086C45.1104 27.5198 45.5942 27.9902 45.6031 29.1323C45.6143 30.6665 45.6054 32.2028 45.6054 33.9273ZM37.4869 46.2405C37.6549 44.1286 36.1857 41.936 34.0111 41.2619C33.1018 40.9797 32.0917 41.0312 31.1287 40.9103C30.6338 40.8476 30.3381 41.0312 30.038 41.4456C28.0941 44.1174 23.4828 44.4085 21.3507 41.88C20.6452 41.0447 19.9778 40.8185 19.0282 40.9103C18.8334 40.9282 18.6386 40.9103 18.4415 40.9215C15.6398 41.0626 13.3128 43.5441 13.4942 46.2383C21.4918 46.2405 29.4916 46.2405 37.4869 46.2405ZM18.802 24.736C22.26 25.1862 25.3484 24.3396 28.2531 22.6711C29.6215 21.885 29.8522 21.9276 30.9921 23.0653C31.3482 23.4214 31.7088 23.7753 32.1903 24.25C32.1903 23.3251 32.2127 22.6286 32.1858 21.9343C32.094 19.4372 30.4031 17.2984 27.9306 16.9512C26.2979 16.7228 24.5779 16.7385 22.9453 16.9714C20.6654 17.2984 18.9835 19.3252 18.8155 21.6208C18.7393 22.642 18.802 23.6745 18.802 24.736ZM20.1324 27.4974C20.1324 28.0775 20.1167 28.5724 20.1346 29.0674C20.2242 31.6832 22.1614 33.7952 24.8064 34.1714C27.3349 34.532 29.8141 32.9575 30.5979 30.4985C31.3863 28.026 30.963 26.4 29.2184 25.2265C26.4144 26.7651 23.4447 27.6856 20.1324 27.4974ZM28.1232 36.4401C26.3494 37.0649 24.6026 36.991 22.8602 36.4759C22.5869 39.9921 22.9654 40.8207 25.4491 40.8476C27.9216 40.879 28.4233 40.0525 28.1232 36.4401Z" fill="#34C2A9"/>
<path d="M6.80677 69.1426C5.20099 67.0464 5.11589 64.7217 5.53917 62.3701C6.13266 59.0622 9.22776 56.7801 12.6185 57.0242C15.9398 57.2616 18.6385 60.079 18.7841 63.4272C18.8714 65.4406 18.7348 67.3912 17.3642 69.1202C17.7068 69.2255 17.9577 69.3061 18.2107 69.3778C21.7314 70.3632 24.0986 73.4292 24.1501 77.0886C24.1635 77.9531 24.168 78.8198 24.1479 79.6843C24.1255 80.625 23.626 81.1423 22.6877 81.1423C15.6263 81.1512 8.56261 81.1513 1.5012 81.1445C0.659116 81.1445 0.0454704 80.6989 0.0499495 79.9531C0.0589079 78.3697 -0.0485921 76.7303 0.303023 75.2119C1.0712 71.8794 3.36901 69.9578 6.80677 69.1426ZM21.4559 78.4503C21.4559 77.821 21.4872 77.2678 21.4514 76.7169C21.2722 74.0406 19.0909 71.8458 16.4303 71.7853C13.5255 71.7204 10.6185 71.7047 7.71604 71.7876C4.39474 71.8839 1.92896 75.3149 2.83375 78.4503C8.99933 78.4503 15.1716 78.4503 21.4559 78.4503ZM8.0587 64.3432C8.0587 64.594 8.05422 64.8448 8.0587 65.0957C8.11021 67.3397 9.84813 69.0642 12.0631 69.0732C14.287 69.0821 16.0294 67.3845 16.0966 65.1293C16.1145 64.5716 16.1212 64.014 16.0898 63.4563C15.942 60.9412 13.5905 59.2123 11.1471 59.808C9.09115 60.3097 8.05646 61.8259 8.0587 64.3432Z" fill="#34C2A9"/>
<path d="M34.9091 69.0821C33.6549 67.4629 33.4668 65.557 33.5317 63.5682C33.6504 59.9356 36.6089 57.0152 40.2415 57.0107C43.8764 57.0085 46.8326 59.92 46.958 63.557C47.0252 65.548 46.8393 67.4539 45.518 69.1605C47.3343 69.5345 48.8326 70.2758 50.0442 71.5434C51.4954 73.0618 52.2547 74.8737 52.3106 76.9722C52.333 77.8098 52.3218 78.6474 52.3151 79.485C52.3062 80.6854 51.8448 81.149 50.6354 81.149C44.1295 81.1535 37.6257 81.1512 31.1197 81.1512C30.5889 81.1512 30.0582 81.1691 29.5296 81.1445C28.7525 81.1064 28.2284 80.6854 28.2015 79.9127C28.159 78.6317 28.0828 77.326 28.2732 76.0696C28.8152 72.5087 30.9406 70.287 34.3828 69.2971C34.5172 69.259 34.6538 69.2344 34.7882 69.1986C34.8061 69.1918 34.8217 69.1627 34.9091 69.0821ZM49.6321 78.4346C49.6321 78.0651 49.6321 77.7874 49.6321 77.5096C49.6299 73.9644 47.4284 71.7651 43.8809 71.7606C41.3389 71.7584 38.797 71.7472 36.2551 71.7629C32.6986 71.7875 30.2351 74.8938 30.9674 78.4324C37.1554 78.4346 43.3456 78.4346 49.6321 78.4346ZM44.2683 64.3812C44.2683 64.1864 44.2705 63.9915 44.2683 63.7967C44.2347 61.4205 42.5214 59.6848 40.2236 59.696C37.9392 59.7072 36.2439 61.4608 36.2237 63.8415C36.2192 64.3431 36.2036 64.847 36.2349 65.3465C36.3827 67.763 38.6962 69.5054 41.0567 68.9925C43.1844 68.5267 44.2683 66.9724 44.2683 64.3812Z" fill="#34C2A9"/>
<path d="M63.1301 69.1536C61.82 67.4582 61.6296 65.5523 61.699 63.5613C61.8222 59.922 64.7784 57.0061 68.411 57.0083C72.0459 57.0105 74.9999 59.922 75.1231 63.5613C75.1903 65.5523 74.9999 67.456 73.7524 69.0707C74.6259 69.4111 75.468 69.6396 76.2093 70.0494C78.9147 71.5477 80.3413 73.8746 80.4734 76.972C80.5093 77.8073 80.4869 78.6472 80.4824 79.4848C80.4734 80.6829 80.0098 81.1465 78.8005 81.1465C72.2116 81.151 65.6228 81.1488 59.0339 81.1488C56.4427 81.1488 56.3173 81.048 56.3531 78.4837C56.3688 77.3728 56.3464 76.2239 56.6174 75.1624C57.3744 72.2016 59.3027 70.2868 62.232 69.391C62.3664 69.3506 62.4985 69.3081 62.6329 69.2723C62.7561 69.2409 62.886 69.2118 63.1301 69.1536ZM77.7859 78.4501C77.7859 77.8275 77.815 77.2721 77.7815 76.7234C77.6202 74.0583 75.4321 71.8455 72.7693 71.7851C69.8645 71.7179 66.9576 71.7067 64.0551 71.7873C60.7382 71.8791 58.2949 75.2587 59.1571 78.4523C65.3227 78.4501 71.4949 78.4501 77.7859 78.4501ZM72.4311 64.3765C72.4311 64.1817 72.4333 63.9868 72.4311 63.792C72.3997 61.4248 70.6797 59.6846 68.3819 59.6936C66.1267 59.7025 64.4223 61.436 64.3865 63.7606C64.3798 64.2623 64.3686 64.7662 64.3932 65.2656C64.5142 67.774 66.859 69.5388 69.3002 68.9654C71.3919 68.475 72.4333 66.9498 72.4311 64.3765Z" fill="#34C2A9"/>
<path d="M2.69273 26.8362C2.69273 28.283 2.2896 28.8698 1.31314 28.8474C0.372517 28.825 0.00970459 28.2673 0.00970459 26.8452C0.00970459 25.4253 0.439705 24.7915 1.38705 24.8161C2.3008 24.8408 2.69273 25.4477 2.69273 26.8362Z" fill="#34C2A9"/>
<path d="M52.3151 15.4352C52.3151 13.2874 52.3062 11.1374 52.3174 8.98966C52.3241 7.5496 53.3364 6.96059 54.5525 7.71309C58.0126 9.85637 61.4661 12.0131 64.9061 14.1877C66.0371 14.9022 66.0147 15.9906 64.868 16.7117C61.4459 18.864 58.0171 21.005 54.5794 23.1349C53.37 23.8851 52.3263 23.3006 52.3151 21.8807C52.3062 19.7329 52.3151 17.5852 52.3151 15.4352ZM61.8513 15.4329C59.502 13.9638 57.3027 12.5887 55.0564 11.1844C55.0564 14.0825 55.0564 16.826 55.0564 19.6769C57.3385 18.2526 59.5266 16.8864 61.8513 15.4329Z" fill="#34C2A9"/>
</svg>
