<svg width="74" height="74" viewBox="0 0 74 74" fill="none" xmlns="http://www.w3.org/2000/svg">
<path d="M0 4.04096C0.291953 3.41369 0.497187 2.72573 0.893203 2.17217C1.78207 0.927757 3.06406 0.421898 4.58598 0.423343C13.6437 0.432015 22.7001 0.427679 31.7578 0.427679C39.5148 0.427679 47.2704 0.427679 55.0274 0.427679C58.0828 0.427679 59.8417 2.17073 59.8417 5.20155C59.8432 26.3522 59.8432 47.5044 59.8417 68.6551C59.8417 71.6454 58.0712 73.4203 55.0895 73.4217C48.5134 73.4232 41.9372 73.4217 35.361 73.4217C35.1442 73.4217 34.9231 73.4434 34.7121 73.4058C34.1123 73.2989 33.7553 72.9303 33.7654 72.3161C33.7755 71.7076 34.1238 71.3347 34.7381 71.2566C34.9751 71.2263 35.2194 71.2422 35.4593 71.2422C41.9632 71.2422 48.4671 71.2422 54.971 71.2422C56.873 71.2422 57.6636 70.4617 57.6636 68.5872C57.6636 47.4841 57.6636 26.3811 57.6636 5.27815C57.6636 3.38912 56.8788 2.60576 54.9884 2.60576C38.2719 2.60576 21.5539 2.60576 4.83746 2.60576C2.95855 2.60576 2.17809 3.3949 2.17809 5.29549C2.17809 26.3739 2.17809 47.4538 2.17809 68.5322C2.17809 70.469 2.95277 71.2407 4.89094 71.2407C13.0093 71.2407 21.1261 71.2407 29.2444 71.2407C29.5089 71.2407 29.7778 71.2205 30.0379 71.2566C30.6507 71.3434 30.9918 71.7307 30.9933 72.3349C30.9947 72.9086 30.658 73.2815 30.0928 73.3928C29.837 73.4434 29.5653 73.4174 29.3008 73.4174C21.3039 73.4188 13.3055 73.3668 5.31008 73.4477C2.61168 73.4781 0.711094 72.4461 0 69.8084C0 47.8859 0 25.9635 0 4.04096Z" fill="#34C2A9"/>
<path d="M74 57.5217C73.8598 57.8165 73.695 58.1027 73.5823 58.4077C72.6659 60.8893 71.7583 63.3738 70.8477 65.8568C70.4532 66.935 69.771 67.7415 68.6335 68.0537C67.1853 68.4497 65.6591 67.7545 65.0853 66.2817C63.9435 63.3463 62.9043 60.3719 61.8391 57.4075C61.7452 57.1459 61.7524 56.8381 61.7524 56.5519C61.7481 50.6984 61.7481 44.8434 61.7524 38.9899C61.7524 38.7037 61.7625 38.4045 61.8492 38.1372C62.0198 37.614 62.4591 37.296 62.9607 37.4608C63.3278 37.5822 63.6544 37.9666 63.8813 38.3106C64.0172 38.5173 63.9363 38.8728 63.9363 39.1604C63.9377 44.4358 63.9377 49.7127 63.9377 54.9881C63.9377 55.2728 63.9377 55.559 63.9377 55.9001C66.5812 55.9001 69.1625 55.9001 71.7829 55.9001C71.7829 43.917 71.7829 31.957 71.7829 19.9436C69.1957 19.9436 66.6318 19.9436 63.9782 19.9436C63.9652 20.2182 63.9391 20.4942 63.9391 20.7703C63.9363 24.7218 63.9377 28.6718 63.9363 32.6233C63.9363 32.8647 63.9406 33.106 63.9218 33.3459C63.8727 33.9631 63.5186 34.3158 62.9159 34.3822C62.3507 34.4444 61.8724 34.0224 61.7712 33.4066C61.7437 33.2419 61.7495 33.0699 61.7495 32.9022C61.7481 27.65 61.7365 22.3991 61.7538 17.1469C61.7639 14.0669 63.6978 11.594 66.5219 10.9739C69.849 10.2441 73.0576 12.2574 73.8468 15.57C73.8843 15.729 73.9479 15.8822 74 16.0369C74 29.8656 74 43.6944 74 57.5217ZM63.9695 17.6484C66.6289 17.6484 69.2059 17.6484 71.8045 17.6484C71.9259 15.8996 71.4085 14.4962 69.9242 13.5871C68.5526 12.7473 67.1232 12.769 65.7704 13.6275C64.3279 14.5453 63.8293 15.9328 63.9695 17.6484ZM64.4291 58.1967C64.8815 59.4382 65.2934 60.6103 65.7501 61.7622C65.8108 61.9169 66.1042 62.0629 66.295 62.0686C67.3515 62.0976 68.4095 62.0947 69.466 62.0715C69.6438 62.0672 69.9242 61.9559 69.9777 61.8215C70.4416 60.6479 70.8636 59.4584 71.3276 58.1967C68.9963 58.1967 66.7734 58.1967 64.4291 58.1967ZM66.7329 64.2988C66.9613 65.4738 67.3241 65.9826 67.8892 65.9667C68.437 65.9508 68.8084 65.4044 69.0107 64.2988C68.2679 64.2988 67.5322 64.2988 66.7329 64.2988Z" fill="#34C2A9"/>
<path d="M20.9541 53.2524C21.5019 52.7885 21.9687 52.3737 22.4558 51.9849C23.07 51.4935 23.693 51.5282 24.1092 52.0514C24.4908 52.5312 24.4055 53.1657 23.8606 53.6485C23.1221 54.3017 22.3416 54.9102 21.6276 55.591C21.4007 55.8063 21.22 56.185 21.2114 56.4943C21.1695 58.009 21.1998 59.5265 21.1897 61.0427C21.1767 62.8652 20.1809 63.8596 18.3728 63.8639C16.2308 63.8683 14.0889 63.8697 11.9469 63.8639C10.1851 63.8596 9.15602 62.8493 9.14734 61.0962C9.13578 58.9296 9.13578 56.7631 9.14734 54.5966C9.15746 52.8521 10.1446 51.8606 11.879 51.8519C13.9732 51.8418 16.0675 51.8808 18.1603 51.8375C19.3325 51.8129 20.2907 52.1208 20.9541 53.2524ZM15.4475 57.9642C16.5763 57.003 17.6891 56.0881 18.7514 55.1198C18.9292 54.9579 18.9523 54.5561 18.9278 54.2772C18.9191 54.1803 18.5477 54.0474 18.341 54.0459C16.2236 54.0286 14.1048 54.0445 11.9874 54.0286C11.5379 54.0257 11.3254 54.1529 11.3283 54.6342C11.3413 56.7761 11.337 58.9195 11.3312 61.0615C11.3298 61.4691 11.4671 61.6916 11.9137 61.6902C14.0802 61.6815 16.2467 61.6974 18.4118 61.6685C18.604 61.6656 18.9509 61.4242 18.9581 61.2812C19.0044 60.1914 18.9827 59.0987 18.9827 57.8341C17.9493 58.7143 17.0648 59.4803 16.1643 60.2261C15.5356 60.7464 14.9936 60.7204 14.4516 60.135C13.781 59.4124 13.1234 58.6753 12.4817 57.9266C12.0062 57.373 12.0351 56.7487 12.5149 56.3237C12.9803 55.9104 13.6119 55.9667 14.1134 56.4928C14.5572 56.9597 14.9806 57.4467 15.4475 57.9642Z" fill="#34C2A9"/>
<path d="M20.9527 36.7771C21.4875 36.3247 21.9543 35.9142 22.4371 35.5254C23.0513 35.0311 23.6757 35.0514 24.0963 35.5616C24.501 36.0501 24.4012 36.699 23.8202 37.2092C23.1149 37.8278 22.4168 38.458 21.6768 39.0332C21.288 39.3367 21.1753 39.6735 21.1825 40.1432C21.2056 41.6102 21.1984 43.0786 21.1883 44.5471C21.1767 46.4057 20.1853 47.3842 18.3194 47.3857C16.202 47.3885 14.0846 47.39 11.9672 47.3857C10.1635 47.3813 9.15173 46.3768 9.14451 44.5702C9.13584 42.4282 9.13439 40.2863 9.14451 38.1443C9.15318 36.3594 10.1418 35.3852 11.9267 35.3823C14.0441 35.378 16.1629 35.4098 18.2789 35.3693C19.4135 35.3462 20.3023 35.6989 20.9527 36.7771ZM15.4475 41.4917C16.5792 40.5276 17.6906 39.6113 18.7544 38.6415C18.9322 38.4796 18.9538 38.0778 18.9264 37.7989C18.9163 37.6992 18.5463 37.5676 18.3396 37.5662C16.2222 37.5489 14.1034 37.5648 11.986 37.5489C11.5336 37.546 11.3255 37.6818 11.3284 38.1602C11.3399 40.3022 11.337 42.4441 11.3313 44.5875C11.3298 44.9994 11.4744 45.2134 11.9181 45.2119C14.0846 45.2032 16.2511 45.2177 18.4162 45.1902C18.607 45.1873 18.9524 44.9445 18.9596 44.8014C19.0059 43.7131 18.9842 42.6219 18.9842 41.3616C17.9638 42.2288 17.0966 42.9775 16.215 43.7117C15.5212 44.2898 14.9951 44.258 14.3982 43.6062C13.7652 42.9139 13.1394 42.2129 12.5236 41.5047C12.0106 40.9135 12.0178 40.2863 12.5179 39.8483C13.002 39.4234 13.6308 39.5044 14.1655 40.0767C14.5904 40.5276 14.9995 40.9945 15.4475 41.4917Z" fill="#34C2A9"/>
<path d="M20.5076 20.7965C21.0294 20.3542 21.4976 19.9423 21.9818 19.5506C22.5542 19.0852 23.1699 19.0953 23.5919 19.5564C24.0298 20.0333 23.9648 20.6953 23.3939 21.204C22.6394 21.8761 21.8431 22.5034 21.1088 23.1971C20.8964 23.3966 20.7316 23.755 20.7244 24.0441C20.6868 25.6079 20.7172 27.1732 20.7027 28.7385C20.6883 30.4092 19.7127 31.3863 18.052 31.3949C15.8132 31.4051 13.5744 31.4051 11.3356 31.3949C9.6981 31.3863 8.69072 30.3731 8.68349 28.7255C8.67337 26.5098 8.67337 24.2956 8.68349 22.0799C8.69216 20.4236 9.73279 19.4003 11.4122 19.3931C13.5311 19.3844 15.6499 19.3902 17.7673 19.3916C19.1331 19.3902 19.6404 19.6446 20.5076 20.7965ZM18.5188 25.3853C17.4826 26.267 16.6125 27.0258 15.7207 27.7614C15.0385 28.3251 14.5413 28.2947 13.9603 27.666C13.307 26.9593 12.6639 26.241 12.0337 25.5125C11.5611 24.9647 11.5727 24.3187 12.0251 23.8996C12.515 23.4457 13.1365 23.5079 13.6756 24.0817C14.1034 24.5355 14.5139 25.0067 14.9793 25.5241C16.1182 24.5514 17.2441 23.6163 18.3266 22.6335C18.4885 22.486 18.5174 22.0958 18.4639 21.8487C18.435 21.72 18.0939 21.5813 17.893 21.5798C15.7496 21.561 13.6062 21.5538 11.4643 21.5914C11.2605 21.5943 10.8905 21.918 10.8876 22.0987C10.8486 24.3129 10.8515 26.5286 10.8833 28.7442C10.8861 28.9032 11.1911 29.1923 11.3588 29.1952C13.5976 29.2255 15.8378 29.2226 18.0766 29.1952C18.2254 29.1937 18.4914 28.9249 18.4972 28.7731C18.5362 27.7022 18.5188 26.6269 18.5188 25.3853Z" fill="#34C2A9"/>
<path d="M39.5264 23.138C35.9146 23.138 32.3027 23.1337 28.6909 23.1424C28.1489 23.1438 27.6821 23.0484 27.419 22.5151C27.0996 21.8676 27.4956 21.1103 28.2327 20.9802C28.4669 20.9383 28.7126 20.9585 28.9539 20.9585C36.0331 20.957 43.1122 20.9571 50.1914 20.9571C50.3113 20.9571 50.4327 20.9556 50.5527 20.9571C51.3707 20.9744 51.8824 21.4109 51.8679 22.0743C51.8535 22.7145 51.3664 23.1322 50.5787 23.1351C47.9786 23.1424 45.3785 23.138 42.7769 23.138C41.6929 23.1395 40.6089 23.1395 39.5264 23.138Z" fill="#34C2A9"/>
<path d="M39.5698 56.5276C35.958 56.5276 32.3461 56.5378 28.7343 56.5132C28.3571 56.5103 27.8946 56.3976 27.6228 56.162C27.0057 55.6258 27.3135 54.6213 28.12 54.4016C28.3469 54.3394 28.597 54.3496 28.8369 54.3496C36.0129 54.3467 43.1874 54.3481 50.3634 54.3481C50.4602 54.3481 50.5556 54.3452 50.6524 54.3496C51.3765 54.3857 51.8535 54.8092 51.8679 55.4234C51.8824 56.068 51.3924 56.5219 50.6221 56.5233C46.938 56.532 43.2539 56.5276 39.5698 56.5276Z" fill="#34C2A9"/>
<path d="M39.5784 29.3615C35.9666 29.3615 32.3548 29.3687 28.7444 29.3513C28.4018 29.3499 27.9668 29.3022 27.7428 29.0941C27.5014 28.8715 27.2991 28.3974 27.3684 28.1026C27.4465 27.7731 27.8107 27.4565 28.1258 27.2556C28.3397 27.1212 28.6866 27.1805 28.9727 27.1805C36.0519 27.1776 43.1296 27.1776 50.2087 27.1776C50.3532 27.1776 50.4978 27.1733 50.6423 27.1805C51.3953 27.2195 51.8925 27.6849 51.865 28.3223C51.839 28.9394 51.3693 29.3557 50.6293 29.3571C46.9466 29.3658 43.2625 29.3615 39.5784 29.3615Z" fill="#34C2A9"/>
<path d="M39.5799 62.7511C35.9204 62.7511 32.2609 62.754 28.6013 62.7497C27.792 62.7482 27.3222 62.3594 27.3179 61.7047C27.3136 61.0803 27.6633 60.7219 28.2516 60.602C28.4828 60.5543 28.7314 60.5774 28.9713 60.5774C36.0505 60.5759 43.1282 60.5759 50.2073 60.5774C50.3519 60.5774 50.4964 60.573 50.6409 60.5788C51.3939 60.6135 51.8926 61.076 51.8666 61.7148C51.842 62.332 51.3694 62.7482 50.6323 62.7497C46.9482 62.7555 43.2641 62.7511 39.5799 62.7511Z" fill="#34C2A9"/>
<path d="M39.5639 38.0898C43.0789 38.0898 46.5939 38.0898 50.1089 38.0898C50.3489 38.0898 50.5917 38.0869 50.8301 38.1072C51.4502 38.1606 51.7942 38.5249 51.8592 39.1232C51.9199 39.6768 51.4834 40.1624 50.8706 40.2578C50.6582 40.291 50.4385 40.2824 50.2217 40.2824C43.144 40.2838 36.0663 40.2838 28.9871 40.2824C27.8208 40.2824 27.3048 39.934 27.3135 39.1622C27.3221 38.4121 27.8092 38.0884 28.9467 38.0884C32.4862 38.0898 36.0258 38.0898 39.5639 38.0898Z" fill="#34C2A9"/>
<path d="M39.6001 44.3204C43.1151 44.3204 46.6301 44.3204 50.1451 44.3219C50.4096 44.3219 50.6769 44.3175 50.9371 44.3537C51.4906 44.4288 51.8014 44.793 51.8505 45.3177C51.9011 45.851 51.6352 46.2557 51.1105 46.4205C50.8648 46.4971 50.5902 46.5072 50.3286 46.5072C43.1541 46.5115 35.9796 46.5115 28.805 46.5072C28.5434 46.5072 28.2688 46.4927 28.026 46.4103C27.5043 46.234 27.1863 45.7975 27.3511 45.2975C27.4725 44.9304 27.8627 44.6138 28.2023 44.3754C28.3844 44.2482 28.7169 44.3233 28.9814 44.3233C32.5224 44.3204 36.0605 44.3204 39.6001 44.3204Z" fill="#34C2A9"/>
<path d="M40.2476 10.0002C39.905 10.9874 39.6174 11.7996 39.3442 12.6162C39.1809 13.1047 38.928 13.5123 38.3687 13.5427C37.7847 13.5759 37.4263 13.2117 37.2312 12.7058C36.6473 11.181 36.0721 9.65333 35.5185 8.11696C35.3046 7.52438 35.5648 6.98239 36.0966 6.8422C36.682 6.68755 37.0924 6.93903 37.2789 7.49837C37.6041 8.47685 37.9004 9.46399 38.2776 10.6723C38.4814 10.0739 38.6245 9.66778 38.7589 9.25876C38.9092 8.80204 39.0451 8.34099 39.2026 7.88716C39.3847 7.36395 39.5394 6.77427 40.2591 6.79884C40.9543 6.82196 41.1278 7.39431 41.3041 7.92329C41.5165 8.56067 41.7088 9.20528 41.9126 9.847C41.9776 10.0508 42.0499 10.2531 42.1915 10.6723C42.5153 9.65911 42.7841 8.83384 43.0442 8.00567C43.3709 6.96794 43.7842 6.61817 44.4245 6.85231C45.0576 7.08356 45.1703 7.61833 44.7916 8.63438C44.3132 9.91782 43.8334 11.1984 43.3535 12.4818C43.1411 13.0513 42.8404 13.56 42.1481 13.5441C41.4703 13.5282 41.2549 12.9804 41.0714 12.4442C40.8156 11.6941 40.5655 10.944 40.2476 10.0002Z" fill="#34C2A9"/>
<path d="M31.5945 10.8308C31.9414 9.7194 32.2304 8.78139 32.5282 7.84772C32.7797 7.06147 33.2407 6.7594 33.8376 6.97475C34.3912 7.1742 34.5733 7.69741 34.303 8.43452C33.7827 9.8567 33.2436 11.2731 32.7146 12.6924C32.5166 13.2228 32.2102 13.6535 31.5916 13.6622C30.947 13.6709 30.6912 13.1954 30.512 12.6678C30.2489 11.896 29.9859 11.1228 29.6462 10.1241C29.3051 11.117 29.0638 11.9307 28.7415 12.7098C28.6042 13.0407 28.3556 13.3963 28.0578 13.5726C27.5621 13.8674 26.942 13.574 26.6747 12.9078C26.0488 11.3468 25.4577 9.76999 24.8984 8.18303C24.709 7.64538 24.9027 7.14819 25.4924 6.97042C26.0647 6.79842 26.494 7.05569 26.6804 7.61936C27.0129 8.62096 27.3149 9.63268 27.6864 10.8222C28.0231 9.79889 28.305 8.94182 28.5883 8.08475C28.7704 7.53553 28.8976 6.90971 29.6636 6.93284C30.4065 6.95596 30.5481 7.57456 30.7288 8.12233C31.0048 8.96206 31.2679 9.80756 31.5945 10.8308Z" fill="#34C2A9"/>
<path d="M17.2961 10.5767C17.5866 9.68779 17.8728 8.79748 18.1676 7.91006C18.3309 7.42154 18.5072 6.9258 19.1519 6.9258C19.8225 6.92725 20.0263 7.436 20.1968 7.94908C20.4902 8.82928 20.7634 9.71525 21.1897 10.5998C21.4817 9.67912 21.7679 8.75557 22.0656 7.83635C22.3214 7.0501 22.7796 6.75525 23.3722 6.97783C23.9113 7.18018 24.0948 7.72361 23.8332 8.43615C23.3201 9.83377 22.7883 11.2256 22.268 12.6203C22.0642 13.1667 21.7794 13.6465 21.1218 13.6595C20.4353 13.6725 20.1997 13.1537 20.0147 12.6073C19.7531 11.837 19.4886 11.0695 19.1649 10.1243C18.8498 11.0551 18.594 11.8153 18.3338 12.5726C18.1503 13.1117 17.9349 13.6494 17.2498 13.661C16.5908 13.6711 16.2829 13.2014 16.0762 12.6565C15.54 11.2415 15.0038 9.82654 14.4849 8.4058C14.2291 7.70482 14.443 7.1426 14.9922 6.96338C15.5646 6.77693 16.0256 7.07033 16.2656 7.80311C16.5676 8.72955 16.8495 9.66322 17.14 10.5955C17.192 10.5882 17.244 10.5824 17.2961 10.5767Z" fill="#34C2A9"/>
</svg>
